SIPNOSIS

Alice (Milla Jovovich) continúa su lucha contra la Umbrella Corporation y sus malvados planes en esta quinta entrega de la franquicia basada en la saga de videojuegos “Resident Evil”, que se desarrolla en Tokio. Es secuela de Resident Evil 4: Ultratumba.
El mortal T-Virus de la Corporación Umbrella continúa causando estragos en la Tierra, convirtiendo a la población global en legiones de zombies. La única y última esperanza de la raza humana, Alice, despierta en el centro de las operaciones más clandestinas de Umbrella y se adentra cada vez más en el complejo. Sin un refugio seguro, Alice sigue a la caza de aquellos responsables del brote en una persecución que la lleva de Tokio a Nueva York, Washington D.C. y Moscú. Alice debe pelear por sobrevivir el tiempo suficiente para escapar de un mundo hostil al borde del olvido.


DATOS TECNICOS

Format                                   : Matroska
Format version                           : Version 2
File size                                : 5.31 GiB
Duration                                 : 1h 35mn
Overall bit rate                         : 7 953 Kbps
Encoded date                             : UTC 2012-12-08 00:29:05
Writing application                      : mkvmerge v5.8.0 ('No Sleep / Pillow') built on Sep  2 2012 15:37:04
Writing library                          : libebml v1.2.3 + libmatroska v1.3.0

Video
ID                                       : 1
Format                                   : AVC
Format/Info                              : Advanced Video Codec
Format profile                           : High@L4.1
Format settings, CABAC                   : Yes
Format settings, ReFrames                : 12 frames
Muxing mode                              : Header stripping
Codec ID                                 : V_MPEG4/ISO/AVC
Duration                                 : 1h 35mn
Bit rate                                 : 5 800 Kbps
Width                                    : 1 280 pixels
Height                                   : 534 pixels
Display aspect ratio                     : 2.40:1
Frame rate mode                          : Constant
Frame rate                               : 23.976 fps
Color space                              : YUV
Chroma subsampling                       : 4:2:0
Bit depth                                : 8 bits
Scan type                                : Progressive
Bits/(Pixel*Frame)                       : 0.354
Stream size                              : 3.77 GiB (71%)
Writing library                          : x264 core 129 r2230+696+36 4446aa2 tMod+MixAQ [8-bit@4:2:0 X86_64]
Encoding settings                        : cabac=1 / ref=12 / deblock=1:-3:-3 / analyse=0x3:0x113 / me=umh / subme=10 / psy=1 / fade_compensate=0.00 / psy_rd=1.10:0.00 / mixed_ref=1 / me_range=32 / chroma_me=1 / trellis=2 / 8x8dct=1 / cqm=0 / deadzone=21,11 / fast_pskip=0 / chroma_qp_offset=-2 / threads=18 / lookahead_threads=3 / sliced_threads=0 / nr=0 / decimate=0 / interlaced=0 / bluray_compat=0 / constrained_intra=0 / fgo=0 / bframes=8 / b_pyramid=2 / b_adapt=2 / b_bias=0 / direct=3 / weightb=1 / open_gop=0 / weightp=2 / keyint=240 / keyint_min=24 / scenecut=40 / intra_refresh=0 / rc_lookahead=240 / rc=2pass / mbtree=1 / bitrate=5800 / ratetol=1.0 / qcomp=0.70 / qpmin=0 / qpmax=69 / qpstep=4 / cplxblur=20.0 / qblur=0.5 / ip_ratio=1.10 / aq=4 / aq-strength=0.90 / aq-sensitivity=10.00 / aq-ifactor=1.00 / aq-pfactor=1.00 / aq-bfactor=1.00 / aq2=0
Language                                 : English
Default                                  : Yes
Forced                                   : No

Audio #1
ID                                       : 2
Format                                   : AC-3
Format/Info                              : Audio Coding 3
Mode extension                           : CM (complete main)
Format settings, Endianness              : Big
Muxing mode                              : Header stripping
Codec ID                                 : A_AC3
Duration                                 : 1h 35mn
Bit rate mode                            : Constant
Bit rate                                 : 640 Kbps
Channel(s)                               : 6 channels
Channel positions                        : Front: L C R, Side: L R, LFE
Sampling rate                            : 48.0 KHz
Bit depth                                : 16 bits
Compression mode                         : Lossy
Stream size                              : 438 MiB (8%)
Title                                    : Español Lat
Language                                 : Spanish
Default                                  : No
Forced                                   : No

Text
ID                                       : 4
Format                                   : PGS
Muxing mode                              : zlib
Codec ID                                 : S_HDMV/PGS
Codec ID/Info                            : The same subtitle format used on BDs/HD-DVDs
Language                                 : English
Default                                  : Yes
Forced                                   : No

Menu
00:00:00.000                             : en:00:00:00.000
00:07:43.046                             : en:00:07:43.046
00:14:32.538                             : en:00:14:32.538
00:21:38.839                             : en:00:21:38.839
00:25:39.329                             : en:00:25:39.329
00:29:31.186                             : en:00:29:31.186
00:34:16.846                             : en:00:34:16.846
00:39:14.769                             : en:00:39:14.769
00:45:29.435                             : en:00:45:29.435
00:50:27.441                             : en:00:50:27.441
00:54:42.070                             : en:00:54:42.070
01:00:14.861                             : en:01:00:14.861
01:05:38.476                             : en:01:05:38.476
01:11:22.904                             : en:01:11:22.904
01:16:15.571                             : en:01:16:15.571
01:21:29.384                             : en:01:21:29.384